<svg width="24" height="20" fill="none" xmlns="http://www.w3.org/2000/svg"><path d="M6.69 6.51l-2.6 2.46 7.14 6.77L24 3.63l-2.6-2.46-10.17 9.65-4.54-4.3z" fill="#fff"/><path d="M19.26 17.4c0 .22-.1.44-.27.6a.94.94 0 01-.65.26H2.75a.94.94 0 01-.65-.25.85.85 0 01-.27-.62V2.61c0-.23.1-.45.27-.62.17-.16.4-.25.65-.25h15.5L19.72.36A2.87 2.87 0 0018.34 0H2.75C2.02 0 1.32.27.81.76.29 1.26 0 1.92 0 2.61v14.78c0 .7.29 1.36.8 1.85.52.49 1.22.76 1.95.76h15.6c.72 0 1.42-.27 1.94-.76.51-.5.8-1.16.8-1.85V8.84l-1.83 1.74v6.81z" fill="#fff"/></svg>